<?xml version="1.0" encoding="UTF-8" standalone="no"?>
<svg width="250px" height="63px" viewBox="0 0 290 50" version="1.1" xmlns="http://www.w3.org/2000/svg" xmlns:xlink="http://www.w3.org/1999/xlink" xmlns:sketch="http://www.bohemiancoding.com/sketch/ns">
    <!-- Generator: Sketch 3.3.3 (12081) - http://www.bohemiancoding.com/sketch -->
    <title>StartupWeekend_small-white</title>
    <desc>Created with Sketch.</desc>
    <defs></defs>
    <g id="Page-1" stroke="none" stroke-width="1" fill="none" fill-rule="evenodd" sketch:type="MSPage">
        <g id="StartupWeekend_small-white" sketch:type="MSArtboardGroup">
            <g id="Group" sketch:type="MSLayerGroup">
                <path d="M69.585,20.535 C69.585,18.61 71.13,17.675 72.89125,17.5825 L72.89125,14.72125 C69.9725,14.82375 69.45375,16.5425 69.45375,16.5425 L69.45375,14.74 L65.99,14.74 L65.99,25.645 L69.585,25.645 L69.585,20.535" id="Fill-3" fill="#FFFFFF" sketch:type="MSShapeGroup"></path>
                <path d="M42.84875,25.73125 C43.565,25.52625 44.2,25.2125 44.7575,24.78875 C45.31125,24.365 45.755,23.8275 46.08125,23.1775 C46.41125,22.52625 46.575,21.75625 46.575,20.86625 C46.575,20.09 46.4225,19.4425 46.115,18.925 C45.80875,18.405 45.42125,17.97 44.9525,17.61875 C44.48625,17.27 43.96625,16.98875 43.39625,16.775 C42.82625,16.56375 42.27875,16.37 41.7525,16.19375 C41.3875,16.07875 41.05875,15.965 40.76625,15.855 C40.47375,15.745 40.2225,15.625 40.01,15.49375 C39.79875,15.36 39.63625,15.2075 39.52625,15.03375 C39.4175,14.8575 39.3625,14.6375 39.3625,14.37375 C39.3625,14.06625 39.4325,13.81625 39.57,13.62 C39.71125,13.4225 39.88125,13.26125 40.08625,13.13625 C40.29125,13.01125 40.52125,12.92875 40.77875,12.88375 C41.03125,12.84125 41.285,12.81875 41.535,12.81875 C42.015,12.81875 42.51625,12.93875 43.03625,13.18 C43.55375,13.4225 43.97375,13.74625 44.29625,14.15625 L46.68625,11.63625 C45.99875,11.0075 45.19875,10.53125 44.28625,10.21125 C43.37,9.88875 42.475,9.7275 41.59875,9.7275 C40.8675,9.7275 40.145,9.81875 39.42875,10.00125 C38.7125,10.185 38.06875,10.4725 37.49875,10.8675 C36.93,11.26125 36.47,11.76625 36.11875,12.38125 C35.7675,12.995 35.5925,13.7325 35.5925,14.59375 C35.5925,15.2975 35.70375,15.8925 35.93125,16.38125 C36.15875,16.87 36.4575,17.2875 36.8325,17.63 C37.20375,17.9725 37.6275,18.25625 38.1025,18.475 C38.5775,18.69375 39.06375,18.885 39.56,19.04625 C40.07125,19.20625 40.5275,19.355 40.93,19.49375 C41.33125,19.6325 41.66875,19.78625 41.94,19.955 C42.20875,20.12375 42.41875,20.30875 42.565,20.51375 C42.70875,20.71875 42.78375,20.9675 42.78375,21.25875 C42.78375,21.56625 42.725,21.8275 42.6075,22.04875 C42.49,22.2675 42.33375,22.4425 42.13625,22.575 C41.94,22.70625 41.7075,22.79875 41.445,22.85875 C41.18375,22.91875 40.9125,22.94875 40.635,22.94875 C40.02125,22.94875 39.40375,22.79 38.78125,22.475 C38.16,22.1625 37.66,21.76875 37.28125,21.3025 L34.82375,23.8025 C35.51125,24.5175 36.375,25.07 37.4125,25.45625 C38.45125,25.84375 39.52375,26.03875 40.635,26.03875 C41.39375,26.03875 42.1325,25.93625 42.84875,25.73125" id="Fill-4" fill="#FFFFFF" sketch:type="MSShapeGroup"></path>
                <path d="M73.9125,23.61 C74.0425,24.08625 74.25875,24.49625 74.5575,24.84 C74.85875,25.18625 75.2575,25.44875 75.75375,25.6325 C76.25125,25.815 76.86375,25.9075 77.59375,25.9075 C77.8425,25.9075 78.09,25.89 78.33625,25.86375 L78.33625,25.865 C78.96375,25.82375 79.8525,25.6025 80.66875,25.3525 C80.07625,24.50125 79.63375,22.94875 79.63375,22.94875 C79.50375,23.005 79.33875,23.05 79.1425,23.0775 C78.9425,23.11 78.7575,23.12125 78.58125,23.12125 C78.07125,23.12125 77.71625,22.995 77.52,22.7375 C77.32125,22.48125 77.2225,22.09625 77.2225,21.58125 L77.2225,17.4 L79.5375,17.4 L79.5375,14.725 L77.2225,14.725 L77.2225,11.85375 L73.6925,11.85375 L73.715,22.01625 C73.715,22.6025 73.78,23.1325 73.9125,23.61" id="Fill-5" fill="#FFFFFF" sketch:type="MSShapeGroup"></path>
                <path d="M81.33875,24.53625 C81.65125,24.95375 82.0625,25.29375 82.5675,25.55625 C83.07,25.81875 83.6875,25.95125 84.41875,25.95125 C84.79875,25.95125 85.16125,25.8975 85.50375,25.7975 C85.84875,25.695 86.1625,25.5625 86.44625,25.4025 C86.73125,25.2425 86.98125,25.05125 87.1925,24.83125 C87.40375,24.61375 87.575,24.37875 87.7075,24.13125 L87.75,24.13125 L87.75,25.645 L91.21625,25.645 L91.21625,14.725 L87.62,14.725 L87.62,20.62375 C87.62,21.25125 87.455,21.80125 87.125,22.2675 C86.79875,22.73625 86.3175,22.96875 85.69,22.96875 C85.35375,22.96875 85.08375,22.90625 84.87875,22.7825 C84.675,22.65875 84.51,22.48625 84.3875,22.2675 C84.26125,22.04875 84.1775,21.80125 84.13375,21.52125 C84.09125,21.24375 84.0675,20.9525 84.0675,20.645 L84.0675,14.725 L80.45125,14.725 L80.45125,21.47625 C80.45125,22.035 80.52,22.5775 80.65875,23.11125 C80.79875,23.645 81.02375,24.12 81.33875,24.53625" id="Fill-6" fill="#FFFFFF" sketch:type="MSShapeGroup"></path>
                <path d="M95.99375,19.1325 C96.1175,18.795 96.2925,18.495 96.52,18.2325 C96.7475,17.97 97.02,17.7575 97.3425,17.5975 C97.6625,17.4375 98.02875,17.3575 98.4375,17.3575 C98.86125,17.3575 99.235,17.4375 99.5575,17.5975 C99.87625,17.7575 100.14375,17.96625 100.35625,18.22125 C100.5675,18.48 100.72875,18.775 100.8375,19.11125 C100.94875,19.4475 101.0025,19.79 101.0025,20.14125 C101.0025,20.4925 100.94875,20.83875 100.8375,21.1825 C100.72875,21.525 100.5675,21.8275 100.35625,22.09125 C100.14375,22.355 99.87625,22.5675 99.5575,22.7275 C99.235,22.88875 98.86125,22.96875 98.4375,22.96875 C98.02875,22.96875 97.6625,22.88875 97.3425,22.7275 C97.02,22.5675 96.7475,22.355 96.52,22.09125 C96.2925,21.8275 96.1175,21.53 95.99375,21.19375 C95.86875,20.8575 95.8075,20.51375 95.8075,20.1625 C95.8075,19.81375 95.86875,19.46875 95.99375,19.1325 M95.93875,24.36875 L95.9825,24.4375 C96.31875,24.90625 96.7875,25.275 97.385,25.54625 C97.98375,25.815 98.62,25.95125 99.29375,25.95125 C100.1125,25.95125 100.8425,25.79 101.485,25.4675 C102.1275,25.14625 102.6725,24.71875 103.11875,24.185 C103.56375,23.65125 103.90375,23.035 104.1375,22.33375 C104.37125,21.63125 104.48875,20.90125 104.48875,20.14125 C104.48875,19.38125 104.3675,18.65375 104.1275,17.96 C103.885,17.2675 103.54125,16.65375 103.09625,16.13 C102.65,15.6025 102.10625,15.1875 101.46375,14.88 C100.82,14.57125 100.10375,14.4175 99.315,14.4175 C98.51125,14.4175 97.81125,14.58375 97.22125,14.91375 C96.63,15.24125 96.16625,15.625 95.82875,16.06375 L95.76375,16.14625 L95.76375,14.725 L92.3425,14.725 L92.3425,30.905 L95.93875,30.905 L95.93875,24.36875" id="Fill-7" fill="#FFFFFF" sketch:type="MSShapeGroup"></path>
                <path d="M46.22625,17.4 L47.97875,17.4 L47.97875,22.01625 C47.97875,22.6025 48.04625,23.1325 48.1775,23.61 C48.31,24.08625 48.52375,24.49625 48.825,24.84 C49.12375,25.18625 49.52125,25.44875 50.02,25.6325 C50.51625,25.815 51.12875,25.9075 51.85875,25.9075 C52.24,25.9075 52.62,25.875 53,25.80875 C53.34375,25.74875 53.8225,25.6175 54.10125,25.5025 C53.6475,24.82875 53.325,24.00625 53.1125,23.11125 C52.5875,23.1775 51.98125,22.995 51.785,22.7375 C51.5875,22.48125 51.4875,22.09625 51.4875,21.58125 L51.4875,17.4 L53.8425,17.4 L53.8425,14.725 L51.4875,14.725 L51.4875,11.85375 L47.95875,11.85375 L47.95875,14.725 L46.22625,14.725 L46.22625,17.4" id="Fill-8" fill="#FFFFFF" sketch:type="MSShapeGroup"></path>
                <path d="M61.165,20.88625 L61.165,21.25875 C61.165,21.9475 60.97,22.49125 60.58375,22.8925 C60.19625,23.29375 59.63625,23.495 58.90625,23.495 C58.73,23.495 58.5475,23.4775 58.35875,23.44 C58.16875,23.40375 57.99875,23.34125 57.855,23.25375 C57.7075,23.1675 57.5875,23.05 57.4925,22.9025 C57.3975,22.7575 57.35,22.5825 57.35,22.3775 C57.35,22.055 57.4525,21.79625 57.6575,21.59875 C57.86125,21.40125 58.12,21.25125 58.43375,21.14875 C58.75,21.0475 59.10625,20.9775 59.50875,20.94125 C59.9125,20.905 60.30875,20.88625 60.70375,20.88625 L61.165,20.88625 L61.165,20.88625 Z M58.6225,18.93625 C57.78875,19.0225 57.0325,19.19875 56.35375,19.4625 C55.6725,19.725 55.1175,20.09625 54.68625,20.58 C54.255,21.0625 54.03875,21.69875 54.03875,22.48625 C54.03875,23.13 54.16375,23.67125 54.41125,24.1075 C54.66125,24.5475 54.9775,24.89875 55.365,25.16125 C55.7525,25.42375 56.18,25.615 56.64875,25.73125 C57.115,25.84875 57.56875,25.9075 58.00625,25.9075 C58.66625,25.9075 59.27625,25.78125 59.8375,25.535 C60.40125,25.2875 60.82125,24.935 61.1,24.48125 L61.165,24.48125 L61.165,25.645 L64.4525,25.645 L64.4525,20.14125 C64.4525,19.1475 64.36125,18.28875 64.17875,17.565 C63.995,16.8425 63.7075,16.24125 63.3125,15.7675 C62.91875,15.2925 62.40375,14.9425 61.7675,14.71375 C61.13125,14.48875 60.3525,14.37375 59.4325,14.37375 C58.54,14.37375 57.66875,14.5275 56.81125,14.835 C55.9575,15.1425 55.20875,15.6025 54.565,16.2175 L56.385,18.1675 C56.72125,17.86 57.1275,17.5975 57.6025,17.38 C58.07625,17.16 58.56875,17.05 59.08125,17.05 C59.63625,17.05 60.105,17.1775 60.485,17.43375 C60.865,17.69 61.055,18.0875 61.055,18.62875 L61.055,18.80375 C60.265,18.80375 59.45375,18.84625 58.6225,18.93625 L58.6225,18.93625 Z" id="Fill-9" fill="#FFFFFF" sketch:type="MSShapeGroup"></path>
                <path d="M62.34875,29.0825 L58.44625,29.0825 L55.94875,39.41 L55.8825,39.41 L53.75625,29.0825 L49.855,29.0825 L47.75125,39.41 L47.6875,39.41 L45.23125,29.0825 L41.1975,29.0825 L45.605,44.605 L49.495,44.605 L51.7675,34.55 L54.0425,44.605 L57.92,44.605 L62.34875,29.0825" id="Fill-10" fill="#FFFFFF" sketch:type="MSShapeGroup"></path>
                <path d="M64.48625,37.09625 C64.61875,36.84125 64.7925,36.6175 65.0125,36.4275 C65.2325,36.23625 65.4875,36.08625 65.78,35.9775 C66.07125,35.86875 66.39375,35.81375 66.745,35.81375 C67.46125,35.81375 67.9975,36.01875 68.35625,36.4275 C68.71375,36.8375 68.8925,37.32625 68.8925,37.89625 L64.2675,37.89625 C64.28125,37.61875 64.35375,37.3525 64.48625,37.09625 M71.7875,42.6325 L69.2875,41.05375 C69.0375,41.39125 68.71875,41.66375 68.32375,41.87625 C67.93,42.0875 67.44625,42.19125 66.87625,42.19125 C66.555,42.19125 66.24375,42.14125 65.94375,42.04 C65.645,41.9375 65.375,41.79625 65.13375,41.61 C64.8925,41.43 64.695,41.2125 64.5425,40.96625 C64.38875,40.71625 64.29625,40.44 64.2675,40.13125 L72.18125,40.13125 C72.195,40.00125 72.20375,39.8625 72.20375,39.71625 L72.20375,39.2775 C72.20375,38.3425 72.06875,37.50875 71.79875,36.77875 C71.5275,36.04625 71.15125,35.42625 70.66875,34.91375 C70.18625,34.40375 69.60875,34.0125 68.93625,33.74125 C68.26375,33.47125 67.52625,33.33625 66.72125,33.33625 C65.89,33.33625 65.11375,33.475 64.39875,33.75125 C63.68375,34.03125 63.06125,34.42 62.535,34.92625 C62.00875,35.42875 61.5925,36.0425 61.285,36.76625 C60.97875,37.49 60.825,38.2975 60.825,39.18875 C60.825,40.11125 60.9825,40.9275 61.29625,41.645 C61.61,42.36125 62.04125,42.965 62.59,43.45375 C63.13875,43.94375 63.77875,44.315 64.5075,44.5725 C65.23875,44.82625 66.01375,44.955 66.83125,44.955 C67.94375,44.955 68.91875,44.755 69.76,44.3525 C70.59875,43.94875 71.275,43.3775 71.7875,42.6325" id="Fill-11" fill="#FFFFFF" sketch:type="MSShapeGroup"></path>
                <path d="M76.29125,37.89625 C76.305,37.61875 76.37875,37.35 76.51,37.09625 C76.64125,36.84125 76.8175,36.6175 77.03625,36.4275 C77.255,36.23625 77.51125,36.08625 77.805,35.9775 C78.0975,35.86875 78.41625,35.81375 78.76875,35.81375 C79.48375,35.81375 80.0225,36.01875 80.38,36.4275 C80.7375,36.8375 80.91625,37.32625 80.91625,37.89625 L76.29125,37.89625 L76.29125,37.89625 Z M82.69125,34.91375 C82.21125,34.40375 81.6325,34.0125 80.96125,33.74125 C80.2875,33.47125 79.55,33.33625 78.7475,33.33625 C77.91375,33.33625 77.14,33.475 76.42375,33.75125 C75.70625,34.03125 75.085,34.42 74.56,34.92625 C74.0325,35.42875 73.6175,36.0425 73.31,36.76625 C73.0025,37.49 72.85,38.2975 72.85,39.18875 C72.85,40.11125 73.005,40.9275 73.32,41.645 C73.635,42.36125 74.06625,42.965 74.61375,43.45375 C75.1625,43.94375 75.8025,44.315 76.53375,44.5725 C77.26375,44.82625 78.0375,44.955 78.85625,44.955 C79.9675,44.955 80.9425,44.755 81.7825,44.3525 C82.62375,43.95125 83.29875,43.3775 83.81125,42.6325 L81.31125,41.05375 C81.06375,41.39125 80.7425,41.66375 80.34625,41.87625 C79.9525,42.0875 79.47,42.19125 78.9,42.19125 C78.5775,42.19125 78.2675,42.14125 77.96875,42.04 C77.66875,41.9375 77.39875,41.79625 77.1575,41.61 C76.915,41.43 76.72,41.2125 76.565,40.96625 C76.4125,40.71625 76.32,40.43875 76.29125,40.13125 L84.205,40.13125 C84.21875,40.00125 84.2275,39.8625 84.2275,39.71625 L84.2275,39.2775 C84.2275,38.3425 84.09125,37.50875 83.8225,36.77875 C83.55125,36.04625 83.175,35.42625 82.69125,34.91375 L82.69125,34.91375 Z" id="Fill-12" fill="#FFFFFF" sketch:type="MSShapeGroup"></path>
                <path d="M98.67375,37.89625 C98.69,37.61875 98.7625,37.35 98.8925,37.09625 C99.025,36.84125 99.2,36.6175 99.41875,36.4275 C99.63875,36.23625 99.89375,36.08625 100.18625,35.9775 C100.47875,35.86875 100.8025,35.81375 101.15,35.81375 C101.86625,35.81375 102.405,36.01875 102.7625,36.4275 C103.12,36.8375 103.3,37.32625 103.3,37.89625 L98.67375,37.89625 L98.67375,37.89625 Z M105.07625,34.91375 C104.59375,34.40375 104.015,34.0125 103.34375,33.74125 C102.67125,33.47125 101.9325,33.33625 101.12875,33.33625 C100.29625,33.33625 99.52125,33.475 98.805,33.75125 C98.08875,34.03125 97.46875,34.42 96.9425,34.92625 C96.41625,35.42875 96,36.0425 95.6925,36.76625 C95.38625,37.49 95.23375,38.2975 95.23375,39.18875 C95.23375,40.11125 95.38875,40.9275 95.705,41.645 C96.0175,42.36125 96.44875,42.965 96.99625,43.45375 C97.545,43.94375 98.18375,44.315 98.915,44.5725 C99.645,44.82625 100.41875,44.955 101.23875,44.955 C102.35,44.955 103.32375,44.755 104.165,44.3525 C105.0075,43.95125 105.68,43.3775 106.1925,42.6325 L103.6925,41.05375 C103.445,41.39125 103.12375,41.66375 102.73,41.87625 C102.33375,42.0875 101.8525,42.19125 101.2825,42.19125 C100.96125,42.19125 100.65,42.14125 100.35,42.04 C100.05125,41.9375 99.78125,41.79625 99.54,41.61 C99.29875,41.43 99.10125,41.2125 98.94625,40.96625 C98.79375,40.71625 98.7025,40.43875 98.67375,40.13125 L106.58875,40.13125 C106.6025,40.00125 106.61,39.8625 106.61,39.71625 L106.61,39.2775 C106.61,38.3425 106.475,37.50875 106.20375,36.77875 C105.93375,36.04625 105.55625,35.42625 105.07625,34.91375 L105.07625,34.91375 Z" id="Fill-13" fill="#FFFFFF" sketch:type="MSShapeGroup"></path>
                <path d="M117.2925,34.79375 C116.97875,34.37625 116.565,34.0375 116.055,33.77375 C115.54375,33.5125 114.9225,33.37875 114.1925,33.37875 C113.81125,33.37875 113.4525,33.43125 113.11625,33.53125 C112.7825,33.63625 112.47125,33.76625 112.18625,33.9275 C111.9,34.08875 111.65125,34.28125 111.43875,34.50875 C111.2275,34.735 111.05625,34.9675 110.92375,35.19875 L110.88,35.275 L110.88,33.685 L107.395,33.685 L107.395,44.605 L111.01375,44.605 L111.01375,38.685 C111.01375,38.3775 111.0525,38.0825 111.13375,37.7975 C111.21375,37.51125 111.33375,37.26 111.495,37.04 C111.65375,36.8225 111.855,36.65125 112.0975,36.525 C112.33875,36.4025 112.62125,36.34 112.94125,36.34 C113.2625,36.34 113.52875,36.4025 113.74125,36.525 C113.95375,36.65125 114.1175,36.8175 114.23625,37.02875 C114.35125,37.2425 114.43625,37.4875 114.4875,37.76375 C114.5375,38.04375 114.5625,38.33625 114.5625,38.64125 L114.5625,44.605 L118.18125,44.605 L118.18125,37.8525 C118.18125,37.31125 118.11125,36.77125 117.9725,36.23 C117.83375,35.69 117.60625,35.20875 117.2925,34.79375" id="Fill-14" fill="#FFFFFF" sketch:type="MSShapeGroup"></path>
                <path d="M127.3725,40.155 C127.25,40.49125 127.07125,40.79 126.8475,41.05375 C126.62,41.31625 126.345,41.53 126.02375,41.68875 C125.70375,41.85 125.3375,41.93 124.92875,41.93 C124.50375,41.93 124.1325,41.85 123.81,41.68875 C123.49,41.53 123.2175,41.31625 122.9975,41.05375 C122.78,40.79 122.61625,40.4875 122.5075,40.1425 C122.3975,39.79875 122.34,39.4525 122.34,39.1 C122.34,38.75 122.3975,38.40875 122.5075,38.07125 C122.61625,37.735 122.78,37.43875 122.9975,37.18375 C123.2175,36.9275 123.49,36.72 123.81,36.55875 C124.1325,36.3975 124.50375,36.3175 124.92875,36.3175 C125.3375,36.3175 125.70375,36.3975 126.02375,36.55875 C126.345,36.72 126.62,36.93 126.8475,37.19375 C127.07125,37.4575 127.25,37.7575 127.3725,38.095 C127.49625,38.42875 127.56,38.77375 127.56,39.125 C127.56,39.47375 127.49625,39.81875 127.3725,40.155 M127.40625,28.03125 L127.40625,34.90875 L127.3625,34.8475 C127.055,34.48375 126.62375,34.14875 126.0675,33.84 C125.5125,33.53125 124.83375,33.37875 124.02875,33.37875 C123.24,33.37875 122.52625,33.53125 121.89125,33.84 C121.255,34.14875 120.71375,34.5625 120.26875,35.09 C119.825,35.61625 119.48125,36.2275 119.24,36.92 C118.9975,37.61375 118.8775,38.3425 118.8775,39.1 C118.8775,39.8625 118.99375,40.5925 119.2275,41.295 C119.4625,41.99625 119.8025,42.61375 120.2475,43.14625 C120.69375,43.68125 121.2375,44.1075 121.8825,44.4275 C122.525,44.75 123.255,44.91125 124.07375,44.91125 C124.805,44.91125 125.495,44.7625 126.145,44.4625 C126.795,44.16125 127.295,43.73625 127.64625,43.18 L127.69,43.0975 L127.69,44.605 L131.00125,44.605 L131.00125,28.03125 L127.40625,28.03125" id="Fill-15" fill="#FFFFFF" sketch:type="MSShapeGroup"></path>
                <path d="M91.9725,38.62 L96.18125,33.685 L91.81875,33.685 L88.78625,37.5375 L88.78625,29.0825 L85.17,29.0825 L85.17,44.605 L88.78625,44.605 L88.78625,40.0325 L91.90625,44.605 L96.3575,44.605 L91.9725,38.62" id="Fill-16" fill="#FFFFFF" sketch:type="MSShapeGroup"></path>
                
                <path d="M17.6575,6.37875 C19.34625,6.37875 20.71375,5.01 20.71375,3.3225 C20.71375,1.63375 19.34625,0.26625 17.6575,0.26625 C15.97,0.26625 14.60125,1.63375 14.60125,3.3225 C14.60125,5.01 15.97,6.37875 17.6575,6.37875" id="Fill-18" fill="#FFFFFF" sketch:type="MSShapeGroup"></path>
                <path d="M22.70125,10.01 C24.035,10.01 25.11625,8.92875 25.11625,7.59625 C25.11625,6.2625 24.035,5.18125 22.70125,5.18125 C21.36625,5.18125 20.28625,6.2625 20.28625,7.59625 C20.28625,8.92875 21.36625,10.01 22.70125,10.01" id="Fill-19" fill="#FFFFFF" sketch:type="MSShapeGroup"></path>
                <path d="M34.91625,42.515 C34.44875,42.83875 33.87,43.19125 33.165,43.54625 L33.165,40.72375 C33.165,38.9225 31.70125,37.4575 29.9,37.4575 C29.18625,37.4575 28.4925,37.69375 27.9275,38.1225 L27.9275,45.36875 C27.88125,45.38 27.835,45.39 27.78875,45.40125 C27.265,45.5175 26.7275,45.62 26.1775,45.7125 L26.1775,29.80125 C26.1775,28.00125 24.7125,26.53625 22.91125,26.53625 C21.11125,26.53625 19.6475,28.00125 19.6475,29.80125 L19.6475,32.96 C22.3125,33.075 24.445,35.2775 24.445,37.97125 L24.445,45.95625 C23.87375,46.0225 23.29,46.0775 22.695,46.12 L22.695,37.97125 C22.695,36.17125 21.23,34.70625 19.42875,34.70625 C17.62875,34.70625 16.16375,36.17125 16.16375,37.97125 L16.16375,46.12 C15.56875,46.0775 14.985,46.0225 14.41375,45.95625 L14.41375,37.97125 C14.41375,36.09625 15.4475,34.4575 16.97625,33.5975 C16.85375,31.90875 15.44,30.57125 13.72,30.57125 C11.92,30.57125 10.455,32.03625 10.455,33.83625 L10.455,38.705 C11.77125,39.61 12.63625,41.1275 12.63625,42.84125 L12.63625,45.705 C12.1425,45.62125 11.66125,45.53 11.19,45.4275 C11.0875,45.405 10.98625,45.38125 10.885,45.35875 L10.885,42.84125 C10.885,41.04125 9.42,39.57625 7.62,39.57625 C5.8375,39.57625 4.385,41.01125 4.35625,42.7875 C3.21875,41.43375 3.8875,39.50875 4.825,37.925 L14.225,23.02 C14.225,23.02 14.23875,23.2625 14.23875,19.38375 C15.8075,19.63625 17.57,19.77 19.39875,19.77 C20.505,19.77 21.5875,19.72125 22.6175,19.62625 L22.6175,23.85 C20.745,24.21875 20.005,25.5 20.79,25.2125 C21.66125,24.895 21.945,24.8775 22.6175,24.79375 L22.6175,24.795 C22.715,24.78875 22.81375,24.78625 22.91125,24.78625 C25.6775,24.78625 27.9275,27.03625 27.9275,29.80125 L27.9275,31.62875 C27.97125,32.07 28.26625,32.43625 28.67,32.58 C30.08375,32.97375 31.1225,34.27 31.1225,35.81 L31.1225,35.85875 C33.3,36.405 34.91625,38.37875 34.91625,40.72375 L34.91625,42.515 L34.91625,42.515 Z M31.62125,40.9675 C31.31375,40.93875 31.075,40.66375 31.12,40.35875 C31.18625,39.9075 31.68375,39.595 32.18,39.85375 C32.3475,39.94 32.4625,40.1075 32.49875,40.2925 C32.6125,40.88625 32.14625,41.0175 31.62125,40.9675 L31.62125,40.9675 Z M31.875,42.68875 C31.875,42.68875 31.2825,42.8925 30.6275,42.8925 C29.9725,42.8925 29.395,42.69125 29.395,42.69125 C29.235,42.63625 29.14875,42.46375 29.2025,42.3025 C29.24375,42.1775 29.36125,42.0975 29.48625,42.09375 C29.48625,42.09375 30.15375,42.13625 30.6275,42.13625 C31.10125,42.13625 31.7525,42.0975 31.7525,42.0975 L31.7875,42.09875 C31.95625,42.10375 32.085,42.24375 32.08125,42.41125 C32.0775,42.54125 31.99125,42.64875 31.875,42.68875 L31.875,42.68875 Z M28.75625,40.29125 C28.79125,40.10625 28.9075,39.94 29.075,39.85375 C29.5725,39.59625 30.0675,39.90625 30.135,40.3575 C30.18,40.66375 29.94125,40.93875 29.63375,40.9675 C29.11,41.0175 28.64,40.88625 28.75625,40.29125 L28.75625,40.29125 Z M20.99125,29.77125 C20.99125,29.38375 21.30625,29.07 21.6925,29.07 C22.08125,29.07 22.39375,29.38375 22.39375,29.77125 C22.39375,30.1575 22.08125,30.28625 21.6925,30.28625 C21.30625,30.28625 20.99125,30.1575 20.99125,29.77125 L20.99125,29.77125 Z M21.455,31.6125 C21.49625,31.48625 21.61375,31.40625 21.73875,31.40375 C21.73875,31.40375 22.40625,31.445 22.88,31.445 C23.35375,31.445 24.00625,31.40625 24.00625,31.40625 L24.04,31.4075 C24.20875,31.41375 24.3375,31.5525 24.3325,31.72125 C24.33,31.85 24.2425,31.95875 24.12625,31.9975 C24.12625,31.9975 23.535,32.2025 22.88,32.2025 C22.225,32.2025 21.64625,32 21.64625,32 C21.48625,31.945 21.4,31.77375 21.455,31.6125 L21.455,31.6125 Z M24.06625,30.28625 C23.67875,30.28625 23.365,30.1575 23.365,29.77125 C23.365,29.38375 23.67875,29.07 24.06625,29.07 C24.45375,29.07 24.76875,29.38375 24.76875,29.77125 C24.76875,30.1575 24.45375,30.28625 24.06625,30.28625 L24.06625,30.28625 Z M20.61625,38.35125 C20.22875,38.35125 19.915,38.22375 19.915,37.83625 C19.915,37.44875 20.22875,37.135 20.61625,37.135 C21.00375,37.135 21.31875,37.44875 21.31875,37.83625 C21.31875,38.22375 21.00375,38.35125 20.61625,38.35125 L20.61625,38.35125 Z M20.6775,40.06375 C20.6775,40.06375 20.085,40.2675 19.43,40.2675 C18.775,40.2675 18.19625,40.065 18.19625,40.065 C18.0375,40.01125 17.95,39.8375 18.00375,39.6775 C18.04625,39.55125 18.16375,39.4725 18.28875,39.46875 C18.28875,39.46875 18.95625,39.51125 19.43,39.51125 C19.90375,39.51125 20.555,39.4725 20.555,39.4725 L20.59,39.4725 C20.7575,39.47875 20.8875,39.61875 20.8825,39.785 C20.88,39.91625 20.7925,40.02375 20.6775,40.06375 L20.6775,40.06375 Z M17.54125,37.83625 C17.54125,37.44875 17.85625,37.135 18.24375,37.135 C18.63,37.135 18.945,37.44875 18.945,37.83625 C18.945,38.22375 18.63,38.35125 18.24375,38.35125 C17.85625,38.35125 17.54125,38.22375 17.54125,37.83625 L17.54125,37.83625 Z M13.3575,33.57875 C13.3575,33.19125 13.6725,32.8775 14.06,32.8775 C14.4475,32.8775 14.76125,33.19125 14.76125,33.57875 C14.76125,33.96625 14.4475,34.09375 14.06,34.09375 C13.6725,34.09375 13.3575,33.96625 13.3575,33.57875 L13.3575,33.57875 Z M11.12375,33.57875 C11.12375,33.19125 11.43875,32.8775 11.82625,32.8775 C12.21375,32.8775 12.5275,33.19125 12.5275,33.57875 C12.5275,33.96625 12.21375,34.09375 11.82625,34.09375 C11.43875,34.09375 11.12375,33.96625 11.12375,33.57875 L11.12375,33.57875 Z M14.12375,35.80625 C14.12375,35.80625 13.5325,36.01 12.8775,36.01 C12.2225,36.01 11.64375,35.80875 11.64375,35.80875 C11.48375,35.75375 11.3975,35.58125 11.45125,35.42 C11.49375,35.29375 11.61125,35.215 11.73625,35.21125 C11.73625,35.21125 12.40375,35.25375 12.8775,35.25375 C13.35125,35.25375 14.0025,35.215 14.0025,35.215 L14.0375,35.215 C14.205,35.22125 14.335,35.36125 14.33,35.52875 C14.32625,35.65875 14.24125,35.76625 14.12375,35.80625 L14.12375,35.80625 Z M9.15,42.83 C8.7625,42.83 8.4475,42.70125 8.4475,42.31375 C8.4475,41.9275 8.7625,41.6125 9.15,41.6125 C9.5375,41.6125 9.8525,41.9275 9.8525,42.31375 C9.8525,42.70125 9.5375,42.83 9.15,42.83 L9.15,42.83 Z M6.7775,42.83 C6.39,42.83 6.07375,42.70125 6.07375,42.31375 C6.07375,41.92625 6.39,41.6125 6.7775,41.6125 C7.16375,41.6125 7.4775,41.92625 7.4775,42.31375 C7.4775,42.70125 7.16375,42.83 6.7775,42.83 L6.7775,42.83 Z M10.7225,14.4625 L10.72375,14.46125 C10.67375,14.38625 10.6775,14.28875 10.72375,14.23 L10.72375,14.22875 C10.755,14.18875 10.80375,14.14125 10.86375,14.08875 C10.965,14 11.10875,13.89375 11.32,13.7775 C11.655,13.59125 12.14625,13.38 12.86,13.1725 C14.58875,12.66875 16.9025,12.39125 19.37375,12.39125 L19.375,12.39125 C21.84625,12.39125 24.16,12.66875 25.88875,13.1725 C26.6025,13.38 27.09375,13.59125 27.42875,13.7775 C27.64,13.89375 27.7825,14 27.885,14.08875 C27.945,14.14125 27.99375,14.18875 28.025,14.22875 L28.025,14.23 C28.07125,14.28875 28.075,14.38625 28.025,14.46125 L28.025,14.4625 C27.895,14.625 27.5325,14.92125 26.71125,15.24125 L26.71375,15.24125 C26.655,15.265 26.5875,15.2875 26.525,15.31 C26.4675,15.33 26.415,15.35125 26.35375,15.37125 C26.21,15.42 26.05625,15.47 25.88875,15.51875 C25.885,15.51875 25.88125,15.52125 25.8775,15.52125 C24.80375,15.0425 22.53125,14.485 19.33625,14.485 C16.17125,14.485 13.9125,15.03125 12.8275,15.50875 C12.67375,15.4625 12.53,15.4175 12.39625,15.37125 C12.335,15.35125 12.28125,15.33 12.22375,15.31 C12.16,15.2875 12.0925,15.265 12.035,15.24125 L12.0375,15.24125 C11.21625,14.92125 10.85375,14.625 10.7225,14.4625 L10.7225,14.4625 Z M36.705,37.71875 L36.7,37.7125 L26.9825,22.26875 L26.9825,19.64375 C27.6225,18.9575 29.24875,17.46625 29.65625,14.98 C29.73125,14.26875 29.80125,13.09375 27.9975,12.22125 C27.9975,12.22125 28,12.22125 28.00375,12.21875 C27.54125,11.9875 26.98875,11.77625 26.35,11.59125 C24.56375,11.07125 22.23125,10.77375 19.74625,10.7475 C18.91625,11.52125 17.8475,11.4925 18.1,11.39625 C18.3575,11.3 18.70875,10.985 18.895,10.7 C19.09375,10.3925 19.21,10.02875 19.21,9.63625 C19.21,8.55375 18.3325,7.67625 17.25125,7.67625 C16.16875,7.67625 15.29125,8.55375 15.29125,9.63625 C15.29125,10.1375 15.48,10.595 15.79,10.94125 C14.5375,11.08375 13.385,11.30375 12.39875,11.59125 C11.76,11.7775 11.20625,11.9875 10.74375,12.22 C10.745,12.22125 10.74625,12.22125 10.74625,12.22125 C10.67,12.25875 10.59625,12.29625 10.52625,12.335 C10.40125,12.405 10.285,12.475 10.1775,12.54625 C9.0075,13.3375 9.02,14.2775 9.08125,14.905 C9.4675,17.42625 11.12125,18.95125 11.7675,19.64375 L11.7675,22.26875 L2.05375,37.70625 L2.045,37.71875 C1.50875,38.60875 1.225,39.63 1.225,40.67375 C1.225,41.965 1.66875,43.23125 2.47,44.23875 C2.58875,44.39 3.6575,45.69375 6.2025,46.95875 C7.7175,47.7125 9.46375,48.31125 11.395,48.74 C13.785,49.27 16.47125,49.53875 19.375,49.53875 C22.28,49.53875 24.96375,49.27 27.355,48.74 C29.285,48.31125 31.0325,47.7125 32.5475,46.95875 C35.09375,45.69125 36.16375,44.3875 36.28,44.23875 C37.0825,43.23 37.525,41.965 37.525,40.67375 C37.525,39.63 37.24125,38.60875 36.705,37.71875 L36.705,37.71875 Z" id="Fill-20" fill="#FFFFFF" sketch:type="MSShapeGroup"></path>
                
            </g>
        </g>
    </g>
</svg>